<mxfile host="app.diagrams.net" modified="2021-02-28T02:51:55.683Z" agent="5.0 (Macintosh)" etag="jcJE-kkXeIaTf-JVzbjV" version="14.4.2" type="github">
  <diagram id="Ak50hdWkotct0uwXJMWf" name="Page-1">
    <mxGraphModel dx="2066" dy="1140" grid="1" gridSize="10" guides="1" tooltips="1" connect="1" arrows="1" fold="1" page="1" pageScale="1" pageWidth="850" pageHeight="1100" math="0" shadow="0">
      <root>
        <mxCell id="0" />
        <mxCell id="1" parent="0" />
        <mxCell id="EI9gTcuj_P9gO5NUD6j0-1" value="Mobile Application" style="whiteSpace=wrap;html=1;aspect=fixed;" vertex="1" parent="1">
          <mxGeometry x="100" y="250" width="70" height="70" as="geometry" />
        </mxCell>
        <mxCell id="EI9gTcuj_P9gO5NUD6j0-3" value="Matching Service" style="whiteSpace=wrap;html=1;aspect=fixed;" vertex="1" parent="1">
          <mxGeometry x="300" y="250" width="70" height="70" as="geometry" />
        </mxCell>
        <mxCell id="EI9gTcuj_P9gO5NUD6j0-5" value="List of translators" style="whiteSpace=wrap;html=1;aspect=fixed;" vertex="1" parent="1">
          <mxGeometry x="430" y="250" width="70" height="70" as="geometry" />
        </mxCell>
        <mxCell id="EI9gTcuj_P9gO5NUD6j0-6" value="" style="endArrow=classic;html=1;exitX=1;exitY=0.5;exitDx=0;exitDy=0;entryX=0;entryY=0.5;entryDx=0;entryDy=0;" edge="1" parent="1" source="EI9gTcuj_P9gO5NUD6j0-1" target="EI9gTcuj_P9gO5NUD6j0-3">
          <mxGeometry width="50" height="50" relative="1" as="geometry">
            <mxPoint x="210" y="290" as="sourcePoint" />
            <mxPoint x="290" y="285" as="targetPoint" />
          </mxGeometry>
        </mxCell>
        <mxCell id="EI9gTcuj_P9gO5NUD6j0-7" value="" style="endArrow=classic;html=1;exitX=1;exitY=0.5;exitDx=0;exitDy=0;" edge="1" parent="1" source="EI9gTcuj_P9gO5NUD6j0-3" target="EI9gTcuj_P9gO5NUD6j0-5">
          <mxGeometry width="50" height="50" relative="1" as="geometry">
            <mxPoint x="370" y="310" as="sourcePoint" />
            <mxPoint x="440" y="210" as="targetPoint" />
          </mxGeometry>
        </mxCell>
        <mxCell id="EI9gTcuj_P9gO5NUD6j0-8" value="Request for a translator english - french" style="text;html=1;strokeColor=none;fillColor=none;align=center;verticalAlign=middle;whiteSpace=wrap;rounded=0;" vertex="1" parent="1">
          <mxGeometry x="190" y="220" width="90" height="50" as="geometry" />
        </mxCell>
      </root>
    </mxGraphModel>
  </diagram>
</mxfile>
